<svg viewBox="0 0 100 100" xmlns="http://www.w3.org/2000/svg" id="Brain-Mind-Map--Streamline-Ux">
  <desc>
    Brain Mind Map Streamline Illustration: https://streamlinehq.com
  </desc>
  <path d="m62.033 79.48 6.572 -11.437" fill="none" stroke="#020064" stroke-linecap="round" stroke-linejoin="round" stroke-width="1"></path>
  <path d="M53.591 84.366a5.634 5.634 0 1 0 11.268 0 5.634 5.634 0 1 0 -11.268 0Z" fill="none" stroke="#020064" stroke-linecap="round" stroke-linejoin="round" stroke-width="1"></path>
  <path d="M67.224 59.391 55.821 49.136" fill="none" stroke="#020064" stroke-linecap="round" stroke-linejoin="round" stroke-width="1"></path>
  <path d="m80.794 79.481 -6.573 -11.438" fill="none" stroke="#020064" stroke-linecap="round" stroke-linejoin="round" stroke-width="1"></path>
  <path d="M65.779 63.158a5.634 5.634 0 1 0 11.268 0 5.634 5.634 0 1 0 -11.268 0Z" fill="none" stroke="#020064" stroke-linecap="round" stroke-linejoin="round" stroke-width="1"></path>
  <path d="M77.968 84.366a5.634 5.634 0 1 0 11.268 0 5.634 5.634 0 1 0 -11.268 0Z" fill="none" stroke="#020064" stroke-linecap="round" stroke-linejoin="round" stroke-width="1"></path>
  <path d="m37.968 79.481 -6.573 -11.438" fill="none" stroke="#020064" stroke-linecap="round" stroke-linejoin="round" stroke-width="1"></path>
  <path d="M35.141 84.366a5.634 5.634 0 1 0 11.268 0 5.634 5.634 0 1 0 -11.268 0Z" fill="none" stroke="#020064" stroke-linecap="round" stroke-linejoin="round" stroke-width="1"></path>
  <path d="m32.776 59.391 11.403 -10.255" fill="none" stroke="#020064" stroke-linecap="round" stroke-linejoin="round" stroke-width="1"></path>
  <path d="m19.206 79.481 6.573 -11.438" fill="none" stroke="#020064" stroke-linecap="round" stroke-linejoin="round" stroke-width="1"></path>
  <path d="M22.953 63.158a5.634 5.634 0 1 0 11.268 0 5.634 5.634 0 1 0 -11.268 0Z" fill="none" stroke="#020064" stroke-linecap="round" stroke-linejoin="round" stroke-width="1"></path>
  <path d="M10.764 84.366a5.634 5.634 0 1 0 11.268 0 5.634 5.634 0 1 0 -11.268 0Z" fill="none" stroke="#020064" stroke-linecap="round" stroke-linejoin="round" stroke-width="1"></path>
  <path d="M52.389 49.136c-1.183 -2.414 -1.517 -4.82 -5.429 -6.153" fill="none" stroke="#020064" stroke-linecap="round" stroke-linejoin="round" stroke-width="1"></path>
  <path d="M59.95 49.136a5.962 5.962 0 0 1 -1.825 -4.462" fill="none" stroke="#020064" stroke-linecap="round" stroke-linejoin="round" stroke-width="1"></path>
  <path d="M60.534 43.568a4.568 4.568 0 0 1 -3.276 1.169c-1.95 0 -3.277 -2.095 -4.213 -4.677a6.687 6.687 0 0 0 -2.808 -3.508" fill="none" stroke="#020064" stroke-linecap="round" stroke-linejoin="round" stroke-width="1"></path>
  <path d="M39.7 30.747a9.594 9.594 0 0 1 7.058 4.727" fill="none" stroke="#020064" stroke-linecap="round" stroke-linejoin="round" stroke-width="1"></path>
  <path d="M43.8 49.136a6.205 6.205 0 0 0 -1.052 -6.736" fill="none" stroke="#020064" stroke-linecap="round" stroke-linejoin="round" stroke-width="1"></path>
  <path d="M32.481 38.158a5.555 5.555 0 0 1 6.519 0.733" fill="none" stroke="#020064" stroke-linecap="round" stroke-linejoin="round" stroke-width="1"></path>
  <path d="M43.216 37.721a4.778 4.778 0 0 1 -0.468 4.678 3.842 3.842 0 0 1 -4.681 1.754c-2.769 -1.023 -3.744 0 -3.744 0" fill="none" stroke="#020064" stroke-linecap="round" stroke-linejoin="round" stroke-width="1"></path>
  <path d="M64.049 33.056a4.147 4.147 0 0 0 -3.049 0.573" fill="none" stroke="#020064" stroke-linecap="round" stroke-linejoin="round" stroke-width="1"></path>
  <path d="M57.327 29.719c-2.639 1.5 -2.761 5.956 -0.537 8 3.266 3.007 5.968 -1.023 8.425 2.924" fill="none" stroke="#020064" stroke-linecap="round" stroke-linejoin="round" stroke-width="1"></path>
  <path d="M46.96 39.475a7.291 7.291 0 0 1 0 -4.677 4.118 4.118 0 0 1 4.681 -2.923" fill="none" stroke="#020064" stroke-linecap="round" stroke-linejoin="round" stroke-width="1"></path>
  <path d="M59.95 49.136h5.127a5.627 5.627 0 0 0 5.259 -4.074 10.92 10.92 0 0 0 0.5 -3.253c0 -4.739 -3.023 -8.6 -6.783 -8.753 -0.6 -2.37 -2.358 -4.1 -4.449 -4.1a3.945 3.945 0 0 0 -2.273 0.762 10.461 10.461 0 0 0 -8.5 -4.86c-3.772 0 -7.1 2.333 -9.128 5.888a6.421 6.421 0 0 0 -0.7 -0.037c-3.41 0 -6.215 3.265 -6.517 7.448a6.53 6.53 0 0 0 -3.313 6 4.792 4.792 0 0 0 4.571 4.981H59.95Z" fill="none" stroke="#020064" stroke-linecap="round" stroke-linejoin="round" stroke-width="1"></path>
  <path d="M50.23 17.19c-0.949 0 -2.2 -3.139 -2.2 -4.991a2.2 2.2 0 0 1 4.4 0c0 1.852 -1.251 4.991 -2.2 4.991Z" fill="none" stroke="#020064" stroke-linecap="round" stroke-linejoin="round" stroke-width="1"></path>
  <path d="M39.018 20.32c-1.134 0 -3.384 -1.756 -4.236 -3.067a2.2 2.2 0 0 1 3.689 -2.4c1.009 1.553 1.67 4.866 0.874 5.383a0.6 0.6 0 0 1 -0.327 0.084Z" fill="none" stroke="#020064" stroke-linecap="round" stroke-linejoin="round" stroke-width="1"></path>
  <path d="M29.794 29.325a9.2 9.2 0 0 1 -3.371 -0.618 2.2 2.2 0 0 1 1.79 -4.019 9.06 9.06 0 0 1 2.619 1.989c0.817 0.878 1.217 1.663 1.044 2.05 -0.163 0.373 -0.961 0.598 -2.082 0.598Z" fill="none" stroke="#020064" stroke-linecap="round" stroke-linejoin="round" stroke-width="1"></path>
  <path d="M61.441 20.32c1.134 0 3.385 -1.756 4.236 -3.067a2.2 2.2 0 0 0 -3.689 -2.4c-1.008 1.553 -1.669 4.866 -0.873 5.383a0.6 0.6 0 0 0 0.326 0.084Z" fill="none" stroke="#020064" stroke-linecap="round" stroke-linejoin="round" stroke-width="1"></path>
  <path d="M70.666 29.325a9.2 9.2 0 0 0 3.37 -0.618 2.2 2.2 0 0 0 -1.789 -4.019 9.063 9.063 0 0 0 -2.62 1.989c-0.816 0.878 -1.216 1.663 -1.044 2.05 0.164 0.373 0.961 0.598 2.083 0.598Z" fill="none" stroke="#020064" stroke-linecap="round" stroke-linejoin="round" stroke-width="1"></path>
</svg>